<?xml version="1.0" encoding="UTF-8" standalone="no"?>
<!-- Created with Inkscape (http://www.inkscape.org/) -->

<svg
   width="202"
   height="140"
   viewBox="0 0 202 140"
   version="1.1"
   id="svg5"
   inkscape:version="1.1.2 (b8e25be833, 2022-02-05)"
   sodipodi:docname="clock.svg"
   inkscape:export-filename="C:\Users\Leslie\Documents\Spica Web Designs\Projects\School Projects\Lampshade Tutorial\logo.png"
   inkscape:export-xdpi="96"
   inkscape:export-ydpi="96"
   xmlns:inkscape="http://www.inkscape.org/namespaces/inkscape"
   xmlns:sodipodi="http://sodipodi.sourceforge.net/DTD/sodipodi-0.dtd"
   xmlns="http://www.w3.org/2000/svg"
   xmlns:svg="http://www.w3.org/2000/svg">
  <sodipodi:namedview
     id="namedview7"
     pagecolor="#505050"
     bordercolor="#eeeeee"
     borderopacity="1"
     inkscape:pageshadow="0"
     inkscape:pageopacity="0"
     inkscape:pagecheckerboard="0"
     inkscape:document-units="px"
     showgrid="false"
     inkscape:zoom="0.54874435"
     inkscape:cx="19.134593"
     inkscape:cy="2.7335133"
     inkscape:window-width="1920"
     inkscape:window-height="1051"
     inkscape:window-x="-9"
     inkscape:window-y="-9"
     inkscape:window-maximized="1"
     inkscape:current-layer="layer1" />
  <defs
     id="defs2">
    <inkscape:path-effect
       effect="spiro"
       id="path-effect2047"
       is_visible="true"
       lpeversion="1" />
    <inkscape:path-effect
       effect="spiro"
       id="path-effect1732"
       is_visible="true"
       lpeversion="1" />
    <inkscape:path-effect
       effect="spiro"
       id="path-effect1615"
       is_visible="true"
       lpeversion="1" />
    <inkscape:path-effect
       effect="spiro"
       id="path-effect1133"
       is_visible="true"
       lpeversion="1" />
    <rect
       x="61.530201"
       y="36.724831"
       width="51.382549"
       height="68.939598"
       id="rect2131" />
    <inkscape:path-effect
       effect="spiro"
       id="path-effect2778"
       is_visible="true"
       lpeversion="1" />
    <inkscape:path-effect
       effect="spiro"
       id="path-effect2612"
       is_visible="true"
       lpeversion="1" />
    <inkscape:path-effect
       effect="spiro"
       id="path-effect2495"
       is_visible="true"
       lpeversion="1" />
    <inkscape:path-effect
       effect="spiro"
       id="path-effect2218"
       is_visible="true"
       lpeversion="1" />
    <inkscape:path-effect
       effect="spiro"
       id="path-effect2212"
       is_visible="true"
       lpeversion="1" />
    <inkscape:path-effect
       effect="spiro"
       id="path-effect2015"
       is_visible="true"
       lpeversion="1" />
    <inkscape:path-effect
       effect="spiro"
       id="path-effect1929"
       is_visible="true"
       lpeversion="1" />
    <inkscape:path-effect
       effect="spiro"
       id="path-effect1429"
       is_visible="true"
       lpeversion="1" />
  </defs>
  <g
     inkscape:label="Layer 1"
     inkscape:groupmode="layer"
     id="layer1">
    <path
       id="path846"
       style="fill:#b0b3b8;fill-opacity:1;stroke-width:10.4978;stroke-linecap:round;stroke-linejoin:bevel;stroke-opacity:0"
       d="m 142.25853,18.223422 a 59.741443,60 0 0 0 -59.741448,60 59.741443,60 0 0 0 59.741448,59.999998 59.741443,60 0 0 0 59.74144,-59.999998 59.741443,60 0 0 0 -59.74144,-60 z m 1.42352,16.878906 a 9.9569072,10 0 0 1 9.95885,10 c 6.9e-4,7.604085 2.7e-4,15.207269 0,22.810547 h 8.64617 a 9.9569072,10 0 0 1 9.95692,10 9.9569072,10 0 0 1 -9.95692,10 H 143.684 a 9.9569072,10 0 0 1 -0.002,0 9.9569072,10 0 0 1 -2.85289,-0.455078 9.9569072,10 0 0 1 -0.32282,-0.08594 9.9569072,10 0 0 1 -2.44839,-1.253907 9.9569072,10 0 0 1 -0.36949,-0.259765 9.9569072,10 0 0 1 -1.91359,-1.921875 9.9569072,10 0 0 1 -0.26254,-0.376953 9.9569072,10 0 0 1 -1.24461,-2.453126 9.9569072,10 0 0 1 -0.0875,-0.330078 9.9569072,10 0 0 1 -0.45312,-2.863281 c 0.001,-10.935098 0.001,-21.871495 0,-32.808594 A 9.9569072,10 0 0 1 143.682,35.102325 Z" />
    <ellipse
       style="fill:#b0b3b8;fill-opacity:1;stroke:#b0b3b8;stroke-width:14.2494;stroke-linecap:round;stroke-linejoin:bevel"
       id="path956"
       cx="11.990872"
       cy="75.489929"
       rx="4.8662066"
       ry="4.8714733" />
  </g>
</svg>
