<?xml version="1.0" encoding="UTF-8" standalone="no"?>
<!-- Created with Inkscape (http://www.inkscape.org/) -->

<svg
   width="120"
   height="120"
   viewBox="0 0 120 120"
   version="1.1"
   id="svg5"
   inkscape:version="1.1.2 (b8e25be833, 2022-02-05)"
   sodipodi:docname="home.svg"
   xmlns:inkscape="http://www.inkscape.org/namespaces/inkscape"
   xmlns:sodipodi="http://sodipodi.sourceforge.net/DTD/sodipodi-0.dtd"
   xmlns="http://www.w3.org/2000/svg"
   xmlns:svg="http://www.w3.org/2000/svg">
  <sodipodi:namedview
     id="namedview7"
     pagecolor="#505050"
     bordercolor="#eeeeee"
     borderopacity="1"
     inkscape:pageshadow="0"
     inkscape:pageopacity="0"
     inkscape:pagecheckerboard="0"
     inkscape:document-units="px"
     showgrid="false"
     inkscape:zoom="3.3440259"
     inkscape:cx="92.852151"
     inkscape:cy="58.761506"
     inkscape:window-width="1920"
     inkscape:window-height="1051"
     inkscape:window-x="-9"
     inkscape:window-y="-9"
     inkscape:window-maximized="1"
     inkscape:current-layer="layer1" />
  <defs
     id="defs2">
    <inkscape:path-effect
       effect="spiro"
       id="path-effect997"
       is_visible="true"
       lpeversion="1" />
  </defs>
  <g
     inkscape:label="Layer 1"
     inkscape:groupmode="layer"
     id="layer1">
    <path
       style="fill:none;stroke:#2374e1;stroke-width:7.57581;stroke-linecap:round;stroke-linejoin:bevel;stroke-miterlimit:4;stroke-dasharray:none;stroke-opacity:1"
       d="m 3.787905,51.64605 h 17.415839 v 54.51299 H 46.973521 V 67.079597 h 13.026482"
       id="path1291" />
    <path
       style="fill:none;stroke:#b0b3b8;stroke-width:7.57581;stroke-linecap:round;stroke-linejoin:bevel;stroke-miterlimit:4;stroke-dasharray:none"
       d="M 3.787905,51.64605 Z"
       id="path1521" />
    <path
       style="fill:none;stroke:#2374e1;stroke-width:7.57581;stroke-linecap:round;stroke-linejoin:bevel;stroke-miterlimit:4;stroke-dasharray:none;stroke-opacity:1"
       d="M 3.787905,51.64605 60.000003,3.787905"
       id="path1523" />
    <path
       style="fill:none;stroke:#2374e1;stroke-width:7.57581;stroke-linecap:round;stroke-linejoin:bevel;stroke-miterlimit:4;stroke-dasharray:none;stroke-opacity:1"
       d="M 116.2121,51.64605 H 98.796262 v 54.51299 H 73.026485 V 67.079597 H 60.000003"
       id="path1685" />
    <path
       style="fill:none;stroke:#2374e1;stroke-width:7.57581;stroke-linecap:round;stroke-linejoin:bevel;stroke-miterlimit:4;stroke-dasharray:none;stroke-opacity:1"
       d="M 116.2121,51.64605 60.000003,3.787905"
       id="path1687" />
    <path
       style="fill:#2374e1;stroke:#2374e1;stroke-width:10;stroke-linecap:round;stroke-linejoin:bevel;fill-opacity:1;stroke-opacity:1;stroke-miterlimit:4;stroke-dasharray:none"
       d="M 25.044662,76.963454 V 51.580213 l -1.906384,-1.9016 -1.906385,-1.901601 -3.42115,-0.04001 -3.421149,-0.04001 5.738715,-4.880136 C 28.453607,35.73712 34.125917,30.910349 36.25869,29.090935 c 1.027953,-0.876919 3.71932,-3.169274 5.980815,-5.094124 7.995571,-6.805352 8.790986,-7.482904 13.232553,-11.271769 2.467086,-2.104541 4.523715,-3.8101004 4.570288,-3.7901323 0.04657,0.019968 10.315965,8.7496053 22.820876,19.3991943 l 22.736198,19.362888 -3.38323,0.03998 -3.383224,0.03998 -1.981145,1.976467 -1.981145,1.976465 V 77.038295 102.3467 H 85.899454 76.928232 V 84.738594 67.130492 l -1.98315,-1.979066 -1.983149,-1.979069 H 59.953507 46.945082 l -1.904227,1.908464 -1.904227,1.908464 V 84.667989 102.3467 h -9.045983 -9.045983 z"
       id="path864" />
  </g>
</svg>
