<?xml version="1.0" encoding="UTF-8" standalone="no"?>
<!-- Created with Inkscape (http://www.inkscape.org/) -->

<svg
   width="120"
   height="120"
   viewBox="0 0 120 120"
   version="1.1"
   id="svg5"
   inkscape:version="1.1.2 (b8e25be833, 2022-02-05)"
   sodipodi:docname="like.svg"
   xmlns:inkscape="http://www.inkscape.org/namespaces/inkscape"
   xmlns:sodipodi="http://sodipodi.sourceforge.net/DTD/sodipodi-0.dtd"
   xmlns="http://www.w3.org/2000/svg"
   xmlns:svg="http://www.w3.org/2000/svg">
  <sodipodi:namedview
     id="namedview7"
     pagecolor="#505050"
     bordercolor="#eeeeee"
     borderopacity="1"
     inkscape:pageshadow="0"
     inkscape:pageopacity="0"
     inkscape:pagecheckerboard="0"
     inkscape:document-units="px"
     showgrid="false"
     inkscape:zoom="2.1949773"
     inkscape:cx="108.65716"
     inkscape:cy="0.68337837"
     inkscape:window-width="1920"
     inkscape:window-height="1051"
     inkscape:window-x="-9"
     inkscape:window-y="-9"
     inkscape:window-maximized="1"
     inkscape:current-layer="layer1" />
  <defs
     id="defs2">
    <inkscape:path-effect
       effect="spiro"
       id="path-effect3053"
       is_visible="true"
       lpeversion="1" />
    <inkscape:path-effect
       effect="spiro"
       id="path-effect2456"
       is_visible="true"
       lpeversion="1" />
    <inkscape:path-effect
       effect="spiro"
       id="path-effect2452"
       is_visible="true"
       lpeversion="1" />
    <inkscape:path-effect
       effect="spiro"
       id="path-effect2448"
       is_visible="true"
       lpeversion="1" />
    <inkscape:path-effect
       effect="spiro"
       id="path-effect2444"
       is_visible="true"
       lpeversion="1" />
    <inkscape:path-effect
       effect="spiro"
       id="path-effect2440"
       is_visible="true"
       lpeversion="1" />
    <inkscape:path-effect
       effect="spiro"
       id="path-effect2436"
       is_visible="true"
       lpeversion="1" />
    <inkscape:path-effect
       effect="spiro"
       id="path-effect1580"
       is_visible="true"
       lpeversion="1" />
    <inkscape:path-effect
       effect="spiro"
       id="path-effect1463"
       is_visible="true"
       lpeversion="1" />
    <inkscape:path-effect
       effect="spiro"
       id="path-effect1346"
       is_visible="true"
       lpeversion="1" />
    <inkscape:path-effect
       effect="spiro"
       id="path-effect1149"
       is_visible="true"
       lpeversion="1" />
  </defs>
  <g
     inkscape:label="Layer 1"
     inkscape:groupmode="layer"
     id="layer1">
    <rect
       style="fill:none;stroke:#b0b3b8;stroke-width:7.8377;stroke-linecap:round;stroke-linejoin:bevel;stroke-miterlimit:4;stroke-dasharray:none"
       id="rect908"
       width="29.385849"
       height="67.387436"
       x="3.9188499"
       y="48.693707"
       ry="5.077136" />
    <path
       style="fill:none;stroke:#b0b3b8;stroke-width:7.8377;stroke-linecap:round;stroke-linejoin:bevel;stroke-miterlimit:4;stroke-dasharray:none"
       d="m 33.612397,56.694063 c 5.888605,-1.290439 11.27989,-4.736415 14.923706,-9.538864 3.59759,-4.741525 5.437685,-10.599135 6.461808,-16.46223 1.276202,-7.306244 1.380506,-14.815907 0.307715,-22.1547768"
       id="path1344"
       inkscape:path-effect="#path-effect1346"
       inkscape:original-d="m 33.612397,56.694063 c 4.979974,-3.17422 9.954544,-6.353838 14.923706,-9.538864 4.969167,-3.185027 4.313278,-10.969412 6.461808,-16.46223 2.148538,-5.492815 0.210565,-14.764447 0.307715,-22.1547768" />
    <path
       style="fill:none;stroke:#b0b3b8;stroke-width:7.8377;stroke-linecap:round;stroke-linejoin:bevel;stroke-miterlimit:4;stroke-dasharray:none"
       d="m 55.305626,8.5381922 c 0.904864,-1.4446686 2.192048,-2.6474628 3.694666,-3.4524373 1.502619,-0.8049745 3.217072,-1.210201 4.921076,-1.1631409 2.51506,0.069459 4.944563,1.1174083 6.920957,2.6743975 1.976395,1.5569893 3.52624,3.6014435 4.771836,5.7874995 2.379051,4.175302 3.69862,8.908989 4.15402,13.692883 0.531847,5.586962 -0.100948,11.282128 -1.846229,16.616076"
       id="path1461"
       inkscape:path-effect="#path-effect1463"
       inkscape:original-d="m 55.305626,8.5381922 c 2.877316,-1.5331229 5.749229,-3.071649 8.615742,-4.6155782 2.866502,-1.5439243 7.8006,5.646669 11.692793,8.461897 3.892192,2.815226 2.774752,9.13399 4.15402,13.692883 1.379269,4.558889 -1.225414,11.082786 -1.846229,16.616076" />
    <path
       style="fill:none;stroke:#b0b3b8;stroke-width:7.8377;stroke-linecap:round;stroke-linejoin:bevel;stroke-miterlimit:4;stroke-dasharray:none"
       d="m 77.921952,42.69347 c 6.110811,0.241778 12.237202,0.08906 18.328376,-0.456899 3.421836,-0.306701 6.955912,-0.726129 10.226282,0.326362 2.94882,0.94901 5.50956,3.142709 6.745,5.983458 0.71898,1.653216 0.98893,3.483334 0.90783,5.284301 -0.0811,1.800967 -0.50554,3.575481 -1.12542,5.26835 -0.44084,1.203921 -0.98204,2.37562 -1.29662,3.618524 -0.31457,1.242905 -0.38822,2.593691 0.0999,3.779218 0.27956,0.678947 0.72867,1.271576 1.15329,1.870591 0.42463,0.599015 0.83597,1.226902 1.02251,1.937062 0.26562,1.011207 0.0441,2.103594 -0.41932,3.040788 -0.46342,0.937194 -1.15359,1.741609 -1.86527,2.507511 -0.7243,0.779486 -1.482,1.53469 -2.09832,2.402078 -0.61631,0.867389 -1.09116,1.867185 -1.16539,2.928647 -0.0519,0.741384 0.0928,1.482909 0.28565,2.200638 0.19289,0.717728 0.43488,1.423027 0.58467,2.150971 0.2286,1.110966 0.23635,2.276508 -0.0607,3.371166 -0.29703,1.094658 -0.90842,2.114664 -1.78875,2.829876 -0.40293,0.327354 -0.85522,0.587625 -1.28226,0.882839 -0.42703,0.295215 -0.83707,0.634476 -1.11112,1.075391 -0.28115,0.452333 -0.40371,0.990977 -0.41273,1.523489 -0.009,0.532511 0.0907,1.061548 0.22759,1.576243 0.27379,1.029389 0.70054,2.036522 0.72908,3.101315 0.0209,0.779871 -0.17646,1.555591 -0.49715,2.266781 -0.32069,0.7112 -0.76219,1.36204 -1.24349,1.97603 -1.32769,1.69372 -2.98693,3.13977 -4.895561,4.13403 -2.181054,1.13617 -4.630188,1.66072 -7.07137,1.95823 -3.604753,0.43932 -7.247691,0.40923 -10.879023,0.43518 -4.42464,0.0316 -8.848206,0.1474 -13.272403,0.21758 -5.644637,0.0895 -11.343454,0.0996 -16.862486,-1.0879 -5.757868,-1.23892 -11.229924,-3.78755 -15.883371,-7.39773"
       id="path3051"
       inkscape:path-effect="#path-effect3053"
       inkscape:original-d="m 77.921952,42.69347 c 6.114857,-0.146908 12.224316,-0.299234 18.328376,-0.456899 6.104052,-0.157714 6.822932,0.222992 10.226282,0.326362 3.40336,0.103359 4.50207,3.994376 6.745,5.983458 2.24293,1.989081 -0.13968,7.040509 -0.21759,10.552651 -0.0779,3.512153 -0.7924,4.937233 -1.19669,7.397742 -0.40433,2.460499 1.45594,2.543834 2.1758,3.807653 0.71987,1.26382 -1.51766,3.704274 -2.28459,5.548299 -0.76694,1.844035 -2.17041,3.559218 -3.26371,5.330725 -1.09331,1.771506 0.58562,2.906474 0.87032,4.351609 0.28471,1.445135 -1.22755,4.139433 -1.84943,6.201042 -0.62188,2.06161 -1.59018,1.310885 -2.39338,1.95823 -0.8032,0.647336 0.36801,4.139424 0.54394,6.201047 0.17593,2.061611 -1.15502,2.833951 -1.74064,4.242811 -0.58561,1.40888 -3.2583,2.76143 -4.895561,4.13403 -1.637266,1.37262 -4.708842,1.31089 -7.07137,1.95823 -2.362528,0.64734 -7.247277,0.2955 -10.879023,0.43518 -3.631746,0.13967 -8.842867,0.15047 -13.272403,0.21758 -4.429545,0.0671 -11.236256,-0.71986 -16.862486,-1.0879 -5.626229,-0.36802 -10.583514,-4.92642 -15.883371,-7.39773" />
  </g>
</svg>
