<?xml version="1.0" encoding="UTF-8" standalone="no"?>
<!-- Created with Inkscape (http://www.inkscape.org/) -->

<svg
   width="180"
   height="180"
   viewBox="0 0 180 180"
   version="1.1"
   id="svg5"
   inkscape:version="1.1.2 (b8e25be833, 2022-02-05)"
   sodipodi:docname="logo-green.svg"
   inkscape:export-filename="C:\Users\Leslie\Documents\Spica Web Designs\Projects\EcoBreeze\Images\logo-green.png"
   inkscape:export-xdpi="410.25601"
   inkscape:export-ydpi="410.25601"
   xmlns:inkscape="http://www.inkscape.org/namespaces/inkscape"
   xmlns:sodipodi="http://sodipodi.sourceforge.net/DTD/sodipodi-0.dtd"
   xmlns="http://www.w3.org/2000/svg"
   xmlns:svg="http://www.w3.org/2000/svg">
  <sodipodi:namedview
     id="namedview7"
     pagecolor="#505050"
     bordercolor="#eeeeee"
     borderopacity="1"
     inkscape:pageshadow="0"
     inkscape:pageopacity="0"
     inkscape:pagecheckerboard="0"
     inkscape:document-units="px"
     showgrid="false"
     inkscape:zoom="1.4633182"
     inkscape:cx="94.306214"
     inkscape:cy="125.39993"
     inkscape:window-width="1059"
     inkscape:window-height="1033"
     inkscape:window-x="851"
     inkscape:window-y="0"
     inkscape:window-maximized="0"
     inkscape:current-layer="layer1" />
  <defs
     id="defs2">
    <inkscape:path-effect
       effect="spiro"
       id="path-effect1141"
       is_visible="true"
       lpeversion="1" />
    <inkscape:path-effect
       effect="spiro"
       id="path-effect1024"
       is_visible="true"
       lpeversion="1" />
    <inkscape:path-effect
       effect="spiro"
       id="path-effect871"
       is_visible="true"
       lpeversion="1" />
  </defs>
  <g
     inkscape:label="Layer 1"
     inkscape:groupmode="layer"
     id="layer1">
    <g
       id="g3961"
       transform="matrix(0.47594104,0,0,0.46943516,151.1961,-20.896924)"
       style="stroke:none;fill:#00d47e;fill-opacity:1">
      <path
         style="fill:#00d47e;fill-opacity:1;stroke:none;stroke-width:0.966443;stroke-linecap:round;stroke-linejoin:round;stroke-opacity:1"
         d="m -124.31258,282.40225 c -8.5894,-4.86813 -18.56907,-12.64214 -25.53817,-19.89385 -14.38337,-14.96667 -23.90234,-32.21042 -28.97968,-52.49715 -1.86187,-7.43922 -3.36359,-23.0514 -2.96376,-30.81217 1.29963,-25.22674 9.98125,-47.64367 25.96057,-67.03319 6.2349,-7.56553 12.36209,-13.621185 26.62197,-26.311191 5.53646,-4.92695 12.646,-11.456935 15.79896,-14.511074 4.4436,-4.30431 6.01426,-5.546943 6.98492,-5.526134 1.80986,0.0388 2.73174,1.740916 2.82516,5.216231 0.12723,4.732929 1.86088,14.10357 3.774134,20.399778 2.104922,6.926954 6.235013,16.63898 13.336919,31.36208 12.750977,26.43433 17.092234,38.35579 19.047155,52.30505 2.502832,17.8588 -0.925333,32.29682 -10.954684,46.13669 -5.878503,8.11196 -16.817022,19.00812 -27.009184,26.90459 -6.64788,5.15051 -13.71501,9.79077 -14.13957,9.28402 -12.44608,-14.85551 -21.53791,-33.41852 -25.40229,-51.86447 -1.37755,-6.57551 -2.6933,-21.84739 -2.47464,-28.72299 0.73,-22.95447 7.42764,-46.63388 18.92686,-66.91582 2.20905,-3.89626 2.44559,-5.43488 0.81151,-5.27879 -1.49986,0.14326 -10.24585,11.30928 -15.4111,19.67534 -12.70048,20.5708 -19.49391,44.22306 -19.62814,68.33808 -0.0406,7.30141 1.88425,23.25964 3.61904,30.00366 1.70154,6.61479 5.14523,16.15654 7.88504,21.84784 6.36434,13.22033 16.80788,27.21229 26.97274,36.1373 1.86313,1.63589 3.29415,3.08745 3.18002,3.22567 -0.11413,0.13823 -1.57382,-0.52304 -3.24378,-1.4695 z"
         id="path1349" />
      <path
         style="fill:#00d47e;fill-opacity:1;stroke:none;stroke-width:0.966443;stroke-linecap:round;stroke-linejoin:round;stroke-opacity:1"
         d="m -118.33294,281.74892 c 8.51062,-5.00458 20.232949,-9.76022 29.99767,-12.16978 20.153203,-4.97304 39.846216,-4.59483 59.953699,1.15144 7.373495,2.10717 21.6449004,8.61274 28.16601494,12.83938 21.19717306,13.73888 36.26999606,32.46585 45.07215406,55.99912 3.434487,9.18234 5.615246,17.51648 9.47517,36.2109 1.498636,7.25819 3.599,16.68022 4.66748,20.93783 1.505847,6.00042 1.796665,7.98198 1.293315,8.81219 -0.93853,1.54798 -2.873548,1.49528 -5.929967,-0.16146 -4.162451,-2.25629 -13.144489,-5.44023 -19.553794,-6.93139 -7.051378,-1.64057 -17.527277,-2.91981 -33.8288194,-4.13094 -29.2682946,-2.17449 -41.7632036,-4.37558 -54.8210736,-9.6572 -16.717596,-6.76189 -27.5072,-16.94977 -34.478206,-32.55537 -4.085922,-9.14692 -8.053012,-24.06804 -9.79548,-36.84294 -1.136522,-8.3325 -1.621529,-16.77294 -0.970405,-16.88724 19.088306,-3.35087 39.710253,-1.94311 57.617102,3.93321 6.383339,2.09476 20.267045,8.59122 26.112156,12.21838 19.5141502,12.10945 36.672306,29.74948 48.487373,49.84907 2.269733,3.86121 3.48395,4.83537 4.165812,3.34218 0.625859,-1.37055 -4.671195,-14.52781 -9.333796,-23.18408 -11.464592,-21.28434 -28.55134331,-38.99376 -49.368451,-51.1675 -6.30289,-3.68589 -21.085563,-9.99802 -27.793444,-11.86766 -6.579353,-1.83381 -16.564595,-3.62236 -22.863302,-4.09526 -14.631317,-1.09849 -31.970488,0.94989 -44.782208,5.29041 -2.34828,0.79559 -4.32087,1.30909 -4.38352,1.14115 -0.0627,-0.16795 1.23989,-1.10146 2.89452,-2.07444 z"
         id="path3874" />
      <path
         style="fill:#00d47e;fill-opacity:1;stroke:none;stroke-width:0.966443;stroke-linecap:round;stroke-linejoin:round;stroke-opacity:1"
         d="m -120.86657,287.35203 c 0.0788,9.87271 -1.66387,22.40236 -4.45949,32.06362 -5.76983,19.93971 -15.94387,36.80525 -30.97403,51.34571 -5.51161,5.33206 -18.2813,14.43867 -25.20224,17.9728 -22.4968,11.48785 -46.25124,15.17781 -71.03272,11.03407 -9.66944,-1.61655 -17.97735,-3.89529 -36.09716,-9.89972 -7.0351,-2.33124 -16.24499,-5.22328 -20.46643,-6.42676 -5.94944,-1.6961 -7.81092,-2.43503 -8.27822,-3.28603 -0.87133,-1.5868 0.1418,-3.23622 3.10482,-5.05479 4.03521,-2.47665 11.2836,-8.66334 15.77963,-13.46838 4.94647,-5.2864 11.29228,-13.71918 20.49191,-27.23116 16.51732,-24.25984 24.67097,-33.98019 35.77392,-42.64784 14.21476,-11.09692 28.43253,-15.34705 45.43289,-13.58131 9.96441,1.03495 24.87003,5.05992 36.80466,9.93835 7.78441,3.18197 15.33655,6.98217 15.10997,7.6032 -6.64222,18.2064 -18.17234,35.36166 -32.21481,47.93128 -5.00578,4.48075 -17.57374,13.25616 -23.6375,16.5046 -20.24416,10.84502 -44.09996,16.8844 -67.41425,17.06676 -4.47877,0.035 -5.92952,0.59954 -4.97732,1.93662 0.874,1.22728 14.91704,3.21853 24.7449,3.50873 24.16507,0.71354 48.04525,-5.22932 68.99658,-17.1706 6.34353,-3.6155 19.20132,-13.2616 24.17443,-18.13599 4.87779,-4.78097 11.41934,-12.53417 14.97824,-17.75256 8.26698,-12.12185 15.1626,-28.16221 17.80947,-41.42773 0.48514,-2.43146 1.02671,-4.39654 1.20348,-4.36681 0.17679,0.0297 0.33396,1.62449 0.34927,3.54394 z"
         id="path3876" />
    </g>
  </g>
</svg>
