<?xml version="1.0" encoding="UTF-8" standalone="no"?>
<!-- Created with Inkscape (http://www.inkscape.org/) -->

<svg
   width="120"
   height="120"
   viewBox="0 0 120 120"
   version="1.1"
   id="svg5"
   inkscape:version="1.1.2 (b8e25be833, 2022-02-05)"
   sodipodi:docname="logo.svg"
   inkscape:export-filename="C:\Users\Leslie\Documents\Spica Web Designs\Projects\School Projects\Lampshade Tutorial\logo.png"
   inkscape:export-xdpi="96"
   inkscape:export-ydpi="96"
   xmlns:inkscape="http://www.inkscape.org/namespaces/inkscape"
   xmlns:sodipodi="http://sodipodi.sourceforge.net/DTD/sodipodi-0.dtd"
   xmlns:xlink="http://www.w3.org/1999/xlink"
   xmlns="http://www.w3.org/2000/svg"
   xmlns:svg="http://www.w3.org/2000/svg">
  <sodipodi:namedview
     id="namedview7"
     pagecolor="#505050"
     bordercolor="#eeeeee"
     borderopacity="1"
     inkscape:pageshadow="0"
     inkscape:pageopacity="0"
     inkscape:pagecheckerboard="0"
     inkscape:document-units="px"
     showgrid="false"
     inkscape:zoom="1.5520833"
     inkscape:cx="-46.067115"
     inkscape:cy="160.75168"
     inkscape:window-width="1920"
     inkscape:window-height="1051"
     inkscape:window-x="-9"
     inkscape:window-y="-9"
     inkscape:window-maximized="1"
     inkscape:current-layer="layer1" />
  <defs
     id="defs2">
    <inkscape:path-effect
       effect="spiro"
       id="path-effect883"
       is_visible="true"
       lpeversion="1" />
    <inkscape:path-effect
       effect="spiro"
       id="path-effect879"
       is_visible="true"
       lpeversion="1" />
    <inkscape:path-effect
       effect="spiro"
       id="path-effect1236"
       is_visible="true"
       lpeversion="1" />
    <inkscape:path-effect
       effect="spiro"
       id="path-effect1070"
       is_visible="true"
       lpeversion="1" />
    <inkscape:path-effect
       effect="spiro"
       id="path-effect953"
       is_visible="true"
       lpeversion="1" />
    <rect
       x="61.530202"
       y="36.724832"
       width="51.382551"
       height="68.939598"
       id="rect2131" />
    <inkscape:path-effect
       effect="spiro"
       id="path-effect2778"
       is_visible="true"
       lpeversion="1" />
    <inkscape:path-effect
       effect="spiro"
       id="path-effect2612"
       is_visible="true"
       lpeversion="1" />
    <inkscape:path-effect
       effect="spiro"
       id="path-effect2495"
       is_visible="true"
       lpeversion="1" />
    <inkscape:path-effect
       effect="spiro"
       id="path-effect2218"
       is_visible="true"
       lpeversion="1" />
    <inkscape:path-effect
       effect="spiro"
       id="path-effect2212"
       is_visible="true"
       lpeversion="1" />
    <inkscape:path-effect
       effect="spiro"
       id="path-effect2015"
       is_visible="true"
       lpeversion="1" />
    <inkscape:path-effect
       effect="spiro"
       id="path-effect1929"
       is_visible="true"
       lpeversion="1" />
    <inkscape:path-effect
       effect="spiro"
       id="path-effect1429"
       is_visible="true"
       lpeversion="1" />
    <linearGradient
       inkscape:collect="always"
       id="linearGradient1014">
      <stop
         style="stop-color:#dfc2ff;stop-opacity:1"
         offset="0"
         id="stop1010" />
      <stop
         style="stop-color:#139ef8;stop-opacity:1"
         offset="0.19546889"
         id="stop3356" />
      <stop
         style="stop-color:#0164e1;stop-opacity:1"
         offset="1"
         id="stop1012" />
    </linearGradient>
    <linearGradient
       inkscape:collect="always"
       xlink:href="#linearGradient1014"
       id="linearGradient1016"
       x1="12.885906"
       y1="20.778524"
       x2="55.872509"
       y2="74.110176"
       gradientUnits="userSpaceOnUse"
       gradientTransform="matrix(2.1045198,0,0,2.1045198,-29.152541,-43.728812)" />
  </defs>
  <g
     inkscape:label="Layer 1"
     inkscape:groupmode="layer"
     id="layer1">
    <circle
       style="fill:url(#linearGradient1016);fill-opacity:1;stroke:none;stroke-width:10.5205;stroke-linecap:round;stroke-linejoin:bevel;stroke-opacity:0"
       id="path846"
       cx="60"
       cy="60"
       r="60" />
    <g
       id="g1523"
       transform="matrix(0.6905209,0,0,0.6905209,-127.30264,22.568192)">
      <path
         style="fill:none;stroke:#ffffff;stroke-width:14.3419;stroke-linecap:round;stroke-linejoin:bevel;stroke-opacity:1"
         d="m 271.24832,52.777212 c 0.49558,-3.773009 -0.23907,-7.69764 -2.06582,-11.03593 -1.82675,-3.338291 -4.73611,-6.072898 -8.18102,-7.689626 -2.91406,-1.367598 -6.19983,-1.937332 -9.40281,-1.616414 -3.20298,0.320918 -6.31387,1.533264 -8.88079,3.475689 -3.44483,2.606748 -5.84417,6.479222 -6.9581,10.653082 -1.11393,4.17386 -0.9839,8.629723 0.0545,12.823019 2.07675,8.386592 7.59596,15.498326 13.63441,21.677722 6.55111,6.704027 13.88288,12.644573 21.79966,17.663112"
         id="path1068"
         inkscape:path-effect="#path-effect1070"
         inkscape:original-d="m 271.24832,52.777212 c -3.41499,-6.241028 -6.8306,-12.482879 -10.24684,-18.725556 -3.41624,-6.242677 -12.18844,1.240341 -18.2836,1.859275 -6.09515,0.618934 4.48781,30.103373 6.73078,45.153823 2.24296,15.050447 14.53373,11.776233 21.79966,17.663112" />
      <path
         style="fill:none;stroke:#ffffff;stroke-width:14.3419;stroke-linecap:round;stroke-linejoin:bevel;stroke-opacity:1"
         d="m 271.24832,52.777212 c -0.49558,-3.77301 0.23908,-7.697641 2.06583,-11.035931 1.82675,-3.33829 4.73611,-6.072898 8.18102,-7.689625 2.91406,-1.367597 6.19983,-1.937331 9.40281,-1.616413 3.20298,0.320918 6.31387,1.533264 8.88079,3.475688 3.44483,2.606748 5.84417,6.479222 6.9581,10.653082 1.11393,4.17386 0.9839,8.629723 -0.0545,12.823019 -2.07675,8.386593 -7.59596,15.498326 -13.63441,21.677722 -6.55112,6.704028 -13.88289,12.644574 -21.79967,17.663112"
         id="path1232"
         inkscape:path-effect="#path-effect1236"
         inkscape:original-d="m 271.24832,52.777212 c 3.415,-6.241028 6.83061,-12.482879 10.24685,-18.725556 3.41624,-6.242677 12.18844,1.240341 18.2836,1.859275 6.09515,0.618934 -4.48781,30.103373 -6.73078,45.153823 -2.24296,15.050447 -14.53373,11.776233 -21.79967,17.663112" />
      <path
         style="fill:#ffffff;fill-opacity:1;stroke:#ffffff;stroke-width:3.22148;stroke-linecap:round;stroke-linejoin:bevel;stroke-opacity:1"
         d="m 268.34067,87.905511 c -5.2577,-3.930316 -8.88261,-7.09243 -13.36522,-11.65887 -5.10051,-5.195887 -7.90858,-8.867195 -10.03038,-13.113848 -2.07732,-4.157622 -3.03674,-8.587364 -2.62201,-12.106106 0.26246,-2.226789 0.56121,-3.27602 1.46336,-5.139438 1.88642,-3.896432 5.36002,-6.195006 9.42164,-6.234537 1.99479,-0.01942 2.96243,0.204121 4.90188,1.132392 2.44739,1.171387 4.43009,3.373359 5.43345,6.034343 0.19288,0.511551 0.29488,1.577045 0.38284,3.999345 0.13366,3.680894 0.31654,4.493969 1.36717,6.078316 2.41817,3.646597 7.90119,4.152974 11.04159,1.019731 1.06608,-1.063648 1.82895,-2.552522 2.0704,-4.040768 0.0931,-0.574121 0.16991,-2.099828 0.17058,-3.39046 0.001,-2.64827 0.16322,-3.416898 1.10001,-5.223866 0.39327,-0.758565 1.01106,-1.556497 1.88797,-2.438483 1.08619,-1.092468 1.55666,-1.432167 2.82276,-2.038158 1.93945,-0.928271 2.90709,-1.151807 4.90188,-1.132392 4.06161,0.03953 7.53522,2.338105 9.42163,6.234537 0.43391,0.896242 0.89888,2.064429 1.03327,2.595973 1.56334,6.183292 -0.47323,13.299994 -5.88081,20.55029 -3.34712,4.487691 -9.43324,10.644108 -15.19664,15.372146 -2.22761,1.827431 -7.20424,5.553013 -7.41772,5.553013 -0.0886,0 -1.39703,-0.923923 -2.90765,-2.05316 z"
         id="path1275" />
    </g>
  </g>
</svg>
