<?xml version="1.0" encoding="UTF-8" standalone="no"?>
<!-- Created with Inkscape (http://www.inkscape.org/) -->

<svg
   width="180"
   height="180"
   viewBox="0 0 180 180"
   version="1.1"
   id="svg5"
   inkscape:version="1.1.2 (b8e25be833, 2022-02-05)"
   sodipodi:docname="sustainability-green.svg"
   inkscape:export-filename="C:\Users\Leslie\Documents\Spica Web Designs\Projects\EcoBreeze\Images\sustainability-green.png"
   inkscape:export-xdpi="410.25601"
   inkscape:export-ydpi="410.25601"
   xmlns:inkscape="http://www.inkscape.org/namespaces/inkscape"
   xmlns:sodipodi="http://sodipodi.sourceforge.net/DTD/sodipodi-0.dtd"
   xmlns="http://www.w3.org/2000/svg"
   xmlns:svg="http://www.w3.org/2000/svg">
  <sodipodi:namedview
     id="namedview7"
     pagecolor="#505050"
     bordercolor="#eeeeee"
     borderopacity="1"
     inkscape:pageshadow="0"
     inkscape:pageopacity="0"
     inkscape:pagecheckerboard="0"
     inkscape:document-units="px"
     showgrid="false"
     inkscape:zoom="1.4633182"
     inkscape:cx="-70.729661"
     inkscape:cy="91.231012"
     inkscape:window-width="1920"
     inkscape:window-height="1051"
     inkscape:window-x="-9"
     inkscape:window-y="-9"
     inkscape:window-maximized="1"
     inkscape:current-layer="layer1" />
  <defs
     id="defs2">
    <inkscape:path-effect
       effect="spiro"
       id="path-effect2552"
       is_visible="true"
       lpeversion="1" />
    <inkscape:path-effect
       effect="spiro"
       id="path-effect2253"
       is_visible="true"
       lpeversion="1" />
    <inkscape:path-effect
       effect="spiro"
       id="path-effect2247"
       is_visible="true"
       lpeversion="1" />
    <inkscape:path-effect
       effect="spiro"
       id="path-effect2210"
       is_visible="true"
       lpeversion="1" />
    <inkscape:path-effect
       effect="spiro"
       id="path-effect2204"
       is_visible="true"
       lpeversion="1" />
    <inkscape:path-effect
       effect="spiro"
       id="path-effect2198"
       is_visible="true"
       lpeversion="1" />
    <inkscape:path-effect
       effect="spiro"
       id="path-effect2112"
       is_visible="true"
       lpeversion="1" />
    <inkscape:path-effect
       effect="spiro"
       id="path-effect1882"
       is_visible="true"
       lpeversion="1" />
    <inkscape:path-effect
       effect="spiro"
       id="path-effect1765"
       is_visible="true"
       lpeversion="1" />
    <inkscape:path-effect
       effect="spiro"
       id="path-effect1761"
       is_visible="true"
       lpeversion="1" />
    <inkscape:path-effect
       effect="spiro"
       id="path-effect1757"
       is_visible="true"
       lpeversion="1" />
    <inkscape:path-effect
       effect="spiro"
       id="path-effect1753"
       is_visible="true"
       lpeversion="1" />
    <inkscape:path-effect
       effect="spiro"
       id="path-effect1749"
       is_visible="true"
       lpeversion="1" />
    <inkscape:path-effect
       effect="spiro"
       id="path-effect1496"
       is_visible="true"
       lpeversion="1" />
    <inkscape:path-effect
       effect="spiro"
       id="path-effect1492"
       is_visible="true"
       lpeversion="1" />
    <inkscape:path-effect
       effect="spiro"
       id="path-effect1488"
       is_visible="true"
       lpeversion="1" />
    <inkscape:path-effect
       effect="spiro"
       id="path-effect1391"
       is_visible="true"
       lpeversion="1" />
    <inkscape:path-effect
       effect="spiro"
       id="path-effect1274"
       is_visible="true"
       lpeversion="1" />
    <inkscape:path-effect
       effect="spiro"
       id="path-effect1157"
       is_visible="true"
       lpeversion="1" />
    <inkscape:path-effect
       effect="spiro"
       id="path-effect962"
       is_visible="true"
       lpeversion="1" />
    <inkscape:path-effect
       effect="spiro"
       id="path-effect1141"
       is_visible="true"
       lpeversion="1" />
    <inkscape:path-effect
       effect="spiro"
       id="path-effect1024"
       is_visible="true"
       lpeversion="1" />
    <inkscape:path-effect
       effect="spiro"
       id="path-effect871"
       is_visible="true"
       lpeversion="1" />
  </defs>
  <g
     inkscape:label="Layer 1"
     inkscape:groupmode="layer"
     id="layer1">
    <g
       id="g1506"
       transform="matrix(0.34931943,0,0,0.34776614,61.810422,40.571475)"
       style="stroke-width:20.08366743;stroke-miterlimit:4;stroke-dasharray:none">
      <g
         id="g1476"
         style="stroke-width:20.08366743;stroke-miterlimit:4;stroke-dasharray:none">
        <path
           style="fill:none;stroke:#00d47e;stroke-width:20.08366743;stroke-linecap:round;stroke-linejoin:round;stroke-miterlimit:4;stroke-dasharray:none;stroke-opacity:1"
           d="m -59.453918,389.52567 c -19.245074,-18.10127 -37.935756,-36.79195 -56.037022,-56.03703 -14.58942,-15.51132 -29.03766,-31.75 -37.58581,-51.25337 -8.43389,-19.24268 -10.64057,-40.55997 -12.30081,-61.50406 -1.47913,-18.65939 -2.6011,-37.50071 0,-56.03702 0.57082,-4.06784 1.32511,-8.13023 2.68947,-12.00473 1.36436,-3.87449 3.36213,-7.57166 6.19444,-10.54676 3.34461,-3.51323 7.83838,-5.93449 12.62783,-6.70288 4.78945,-0.76839 9.84606,0.13793 14.02393,2.60261 3.98734,2.35228 7.08683,6.02756 9.26146,10.1145 2.17462,4.08694 3.47356,8.58578 4.40611,13.12036 2.12027,10.30998 2.41,20.91583 2.05013,31.43541 -0.59539,17.40404 -2.89853,35.24047 2.05014,51.93675 3.67577,12.40163 11.13816,23.3185 19.134592,33.48554 15.67487,19.92976 33.85908,37.88379 53.986891,53.30352"
           id="path960"
           inkscape:path-effect="#path-effect962"
           inkscape:original-d="m -59.453918,389.52567 c -18.678008,-18.67801 -37.357017,-37.35702 -56.037022,-56.03703 -18.68001,-18.68001 -25.05621,-34.16792 -37.58581,-51.25337 -12.52961,-17.08546 -8.19954,-41.00171 -12.30081,-61.50406 -4.10127,-20.50235 10e-4,-37.35702 0,-56.03702 -0.001,-18.68001 5.92361,-15.03333 8.88391,-22.55149 2.96031,-7.51816 17.76884,-2.73251 26.65176,-4.10027 8.88292,-1.36776 9.11271,15.49091 13.66757,23.23486 4.55485,7.74396 1.36775,20.95794 2.05013,31.43541 0.68238,10.47747 1.36776,34.6255 2.05014,51.93675 0.68238,17.31126 12.757394,22.3247 19.134592,33.48554 6.377198,11.16085 35.992261,35.53668 53.986891,53.30352" />
        <path
           style="fill:none;stroke:#00d47e;stroke-width:20.08366743;stroke-linecap:round;stroke-linejoin:round;stroke-miterlimit:4;stroke-dasharray:none;stroke-opacity:1"
           d="M 80.697987,390.92617 C 82.189454,373.87883 79.512996,356.48186 72.966443,340.67114 64.870281,321.11793 50.672317,303.95099 32.375839,293.31544 19.502991,285.83259 4.7366059,281.63759 -10.147651,281.2349"
           id="path1272"
           inkscape:path-effect="#path-effect1274"
           inkscape:original-d="M 80.697987,390.92617 C 78.121805,374.1755 75.544624,357.42382 72.966443,340.67114 70.388262,323.91846 45.90704,309.10167 32.375839,293.31544 18.844638,277.5292 4.0278456,285.26275 -10.147651,281.2349" />
        <path
           style="fill:none;stroke:#00d47e;stroke-width:20.08366743;stroke-linecap:round;stroke-linejoin:round;stroke-miterlimit:4;stroke-dasharray:none;stroke-opacity:1"
           d="m -10.147651,281.2349 c -10.378137,-9.74871 -20.529449,-19.73889 -30.442953,-29.95973 -8.14904,-8.40167 -16.552288,-17.23863 -27.543624,-21.26175 -6.668045,-2.44068 -14.290044,-2.88433 -20.778524,0 -3.889798,1.72914 -7.256195,4.61609 -9.558098,8.19683 -2.3019,3.58074 -3.5307,7.84186 -3.48888,12.09847"
           id="path1389"
           inkscape:path-effect="#path-effect1391"
           inkscape:original-d="m -10.147651,281.2349 c -10.146651,-9.98558 -20.294302,-19.97215 -30.442953,-29.95973 -10.148651,-9.98758 -18.361416,-14.1735 -27.543624,-21.26175 -9.182208,-7.08825 -13.851349,0.001 -20.778524,0 -6.927174,-0.001 -8.696986,13.5312 -13.046978,20.2953" />
      </g>
      <g
         id="g1484"
         transform="matrix(-1,0,0,1,161.39597,0)"
         style="stroke-width:20.08366743;stroke-miterlimit:4;stroke-dasharray:none">
        <path
           style="fill:none;stroke:#00d47e;stroke-width:20.08366743;stroke-linecap:round;stroke-linejoin:round;stroke-miterlimit:4;stroke-dasharray:none;stroke-opacity:1"
           d="m -59.453918,389.52567 c -19.245074,-18.10127 -37.935756,-36.79195 -56.037022,-56.03703 -14.58942,-15.51132 -29.03766,-31.75 -37.58581,-51.25337 -8.43389,-19.24268 -10.64057,-40.55997 -12.30081,-61.50406 -1.47913,-18.65939 -2.6011,-37.50071 0,-56.03702 0.57082,-4.06784 1.32511,-8.13023 2.68947,-12.00473 1.36436,-3.87449 3.36213,-7.57166 6.19444,-10.54676 3.34461,-3.51323 7.83838,-5.93449 12.62783,-6.70288 4.78945,-0.76839 9.84606,0.13793 14.02393,2.60261 3.98734,2.35228 7.08683,6.02756 9.26146,10.1145 2.17462,4.08694 3.47356,8.58578 4.40611,13.12036 2.12027,10.30998 2.41,20.91583 2.05013,31.43541 -0.59539,17.40404 -2.89853,35.24047 2.05014,51.93675 3.67577,12.40163 11.13816,23.3185 19.134592,33.48554 15.67487,19.92976 33.85908,37.88379 53.986891,53.30352"
           id="path1478"
           inkscape:path-effect="#path-effect1488"
           inkscape:original-d="m -59.453918,389.52567 c -18.678008,-18.67801 -37.357017,-37.35702 -56.037022,-56.03703 -18.68001,-18.68001 -25.05621,-34.16792 -37.58581,-51.25337 -12.52961,-17.08546 -8.19954,-41.00171 -12.30081,-61.50406 -4.10127,-20.50235 10e-4,-37.35702 0,-56.03702 -0.001,-18.68001 5.92361,-15.03333 8.88391,-22.55149 2.96031,-7.51816 17.76884,-2.73251 26.65176,-4.10027 8.88292,-1.36776 9.11271,15.49091 13.66757,23.23486 4.55485,7.74396 1.36775,20.95794 2.05013,31.43541 0.68238,10.47747 1.36776,34.6255 2.05014,51.93675 0.68238,17.31126 12.757394,22.3247 19.134592,33.48554 6.377198,11.16085 35.992261,35.53668 53.986891,53.30352" />
        <path
           style="fill:none;stroke:#00d47e;stroke-width:20.08366743;stroke-linecap:round;stroke-linejoin:round;stroke-miterlimit:4;stroke-dasharray:none;stroke-opacity:1"
           d="M 80.697987,390.92617 C 82.189454,373.87883 79.512996,356.48186 72.966443,340.67114 64.870281,321.11793 50.672317,303.95099 32.375839,293.31544 19.502991,285.83259 4.7366059,281.63759 -10.147651,281.2349"
           id="path1480"
           inkscape:path-effect="#path-effect1492"
           inkscape:original-d="M 80.697987,390.92617 C 78.121805,374.1755 75.544624,357.42382 72.966443,340.67114 70.388262,323.91846 45.90704,309.10167 32.375839,293.31544 18.844638,277.5292 4.0278456,285.26275 -10.147651,281.2349" />
        <path
           style="fill:none;stroke:#00d47e;stroke-width:20.08366743;stroke-linecap:round;stroke-linejoin:round;stroke-miterlimit:4;stroke-dasharray:none;stroke-opacity:1"
           d="m -10.147651,281.2349 c -10.378137,-9.74871 -20.529449,-19.73889 -30.442953,-29.95973 -8.14904,-8.40167 -16.552288,-17.23863 -27.543624,-21.26175 -6.668045,-2.44068 -14.290044,-2.88433 -20.778524,0 -3.889798,1.72914 -7.256195,4.61609 -9.558098,8.19683 -2.3019,3.58074 -3.5307,7.84186 -3.48888,12.09847"
           id="path1482"
           inkscape:path-effect="#path-effect1496"
           inkscape:original-d="m -10.147651,281.2349 c -10.146651,-9.98558 -20.294302,-19.97215 -30.442953,-29.95973 -10.148651,-9.98758 -18.361416,-14.1735 -27.543624,-21.26175 -9.182208,-7.08825 -13.851349,0.001 -20.778524,0 -6.927174,-0.001 -8.696986,13.5312 -13.046978,20.2953" />
      </g>
    </g>
    <path
       style="fill:none;stroke:#00d47e;stroke-width:7;stroke-linecap:round;stroke-linejoin:round;stroke-miterlimit:4;stroke-dasharray:none;stroke-opacity:1"
       id="path1530"
       sodipodi:type="arc"
       sodipodi:cx="90.601738"
       sodipodi:cy="127.49883"
       sodipodi:rx="63.720348"
       sodipodi:ry="63.437008"
       sodipodi:start="3.1415927"
       sodipodi:end="0"
       sodipodi:arc-type="arc"
       d="M 26.88139,127.49883 A 63.720348,63.437008 0 0 1 90.601738,64.061825 63.720348,63.437008 0 0 1 154.32209,127.49883"
       sodipodi:open="true" />
    <path
       style="fill:none;stroke:#00d47e;stroke-width:7;stroke-linecap:round;stroke-linejoin:round;stroke-miterlimit:4;stroke-dasharray:none;stroke-opacity:1"
       d="m 39.022612,92.162231 c 3.357232,-0.876884 6.939477,-0.876884 10.296709,0 3.177237,0.829871 6.204078,2.489818 8.271137,5.041443 1.543296,1.90508 2.510915,4.277526 2.70078,6.721916 0.160363,2.06457 -0.262222,4.23602 -1.519182,5.88168 -1.09001,1.42709 -2.699618,2.34664 -4.051172,3.52901 -1.205358,1.05448 -2.2105,2.32614 -3.03838,3.69706 -0.977381,1.61849 -1.713325,3.38101 -2.194377,5.2095 -0.446738,1.69806 -0.674278,3.45365 -0.675195,5.20949"
       id="path1747"
       inkscape:path-effect="#path-effect1749"
       inkscape:original-d="m 39.022612,92.162231 c 3.432579,3.47e-4 6.86482,3.47e-4 10.296709,0 3.431889,-3.48e-4 5.514442,3.361309 8.271137,5.041443 2.756692,1.680132 1.800867,4.481626 2.70078,6.721916 0.899914,2.24029 -1.012441,3.92147 -1.519182,5.88168 -0.506756,1.96022 -2.70043,2.35303 -4.051172,3.52901 -1.350742,1.17599 -2.025235,2.46506 -3.03838,3.69706 -1.013143,1.23201 -1.462566,3.47335 -2.194377,5.2095 -0.731811,1.73614 -0.449787,3.47333 -0.675195,5.20949" />
    <path
       style="fill:none;stroke:#00d47e;stroke-width:7;stroke-linecap:round;stroke-linejoin:round;stroke-miterlimit:4;stroke-dasharray:none;stroke-opacity:1"
       d="m 131.01787,81.071061 c -3.7055,0.102971 -7.39036,0.905451 -10.80311,2.352673 -2.04734,0.868203 -4.0082,1.97446 -5.69509,3.423526 -1.68689,1.449065 -3.09518,3.252348 -3.92643,5.314971 -1.37988,3.423969 -1.09165,7.278242 -0.5064,10.923119 0.61446,3.82683 1.56976,7.69416 3.71357,10.92313 1.74446,2.62749 4.1951,4.70742 6.75195,6.55387 3.57863,2.58433 7.43376,4.78553 11.4783,6.55388"
       id="path1751"
       inkscape:path-effect="#path-effect1753"
       inkscape:original-d="m 131.01787,81.071061 c -3.60069,0.784571 -7.20173,1.568795 -10.80311,2.352673 -3.60138,0.783875 -6.414,5.826012 -9.62152,8.738497 -3.20753,2.912486 -0.33725,7.282431 -0.5064,10.923119 -0.16915,3.6407 2.47606,7.28244 3.71357,10.92313 1.23751,3.64069 4.50164,4.36959 6.75195,6.55387 2.25031,2.18428 7.65255,4.3696 11.4783,6.55388" />
    <path
       style="fill:none;stroke:#00d47e;stroke-width:7;stroke-linecap:round;stroke-linejoin:round;stroke-miterlimit:4;stroke-dasharray:none;stroke-opacity:1"
       d="m 81.391073,106.61436 c -1.600878,0.62259 -3.013146,1.68601 -4.142607,2.98014 -1.129461,1.29412 -1.982971,2.81458 -2.609347,4.41398 -1.350144,3.44749 -1.647878,7.27555 -1.012794,10.92312 0.436254,2.5056 1.340885,4.99607 3.03838,6.88997 1.039132,1.15936 2.365097,2.07054 3.84183,2.56366 1.476734,0.49312 3.102908,0.55906 4.598099,0.12511 1.736129,-0.50388 3.229008,-1.64902 4.439815,-2.9914 1.210807,-1.34238 2.171289,-2.88675 3.156125,-4.40271 1.549015,-2.3844 3.187482,-4.74482 4.219978,-7.39412 0.535706,-1.37458 0.903512,-2.82628 0.949185,-4.30085 0.04567,-1.47457 -0.241366,-2.97522 -0.949185,-4.2696 -0.769283,-1.40678 -2.008718,-2.52172 -3.407092,-3.30619 -1.398373,-0.78447 -2.953803,-1.25474 -4.526447,-1.5672 -2.519946,-0.50067 -5.201446,-0.59515 -7.59594,0.33609 z"
       id="path1755"
       inkscape:path-effect="#path-effect1757"
       inkscape:original-d="m 81.391073,106.61436 c -2.532327,0.11169 -4.500946,4.92976 -6.751954,7.39412 -2.250993,2.46436 -0.674844,7.28243 -1.012794,10.92312 -0.337934,3.64069 2.025938,4.59366 3.03838,6.88997 1.012442,2.29632 5.626969,1.79287 8.439929,2.68877 2.812971,0.89592 5.064316,-4.92907 7.59594,-7.39411 2.531638,-2.46506 2.813661,-4.92906 4.219978,-7.39412 1.406303,-2.46505 3.37e-4,-5.71329 0,-8.57045 -3.52e-4,-2.85716 -5.288683,-3.24858 -7.933539,-4.87339 -2.644868,-1.62481 -5.063612,0.22441 -7.59594,0.33609 z" />
    <path
       style="fill:none;stroke:#00d47e;stroke-width:7;stroke-linecap:round;stroke-linejoin:round;stroke-miterlimit:4;stroke-dasharray:none;stroke-opacity:1"
       d="M 90.675002,24.438861 V 63.762109"
       id="path1759"
       inkscape:path-effect="#path-effect1761"
       inkscape:original-d="m 90.675002,24.438861 c 3.37e-4,13.108097 3.37e-4,26.215846 0,39.323248" />
    <path
       style="fill:none;stroke:#00d47e;stroke-width:7;stroke-linecap:round;stroke-linejoin:round;stroke-miterlimit:4;stroke-dasharray:none;stroke-opacity:1"
       d="m 36.997027,68.131359 9.959109,11.763366"
       id="path1763"
       inkscape:path-effect="#path-effect1765"
       inkscape:original-d="m 36.997027,68.131359 c 3.320049,3.921469 6.639764,7.842591 9.959109,11.763366" />
    <path
       style="fill:none;stroke:#00d47e;stroke-width:7;stroke-linecap:round;stroke-linejoin:round;stroke-miterlimit:4;stroke-dasharray:none;stroke-opacity:1"
       d="m 11.002034,57.376281 c 0.175264,3.434012 1.644732,6.786577 4.051158,9.242645 2.999479,3.061355 7.36257,4.644337 11.647113,4.537297 3.037011,-0.07587 6.049959,-0.964196 8.642411,-2.547985 2.592453,-1.583789 4.758014,-3.859123 6.211872,-6.526611 2.156856,-3.957322 2.693608,-8.756525 1.519183,-13.107749 C 41.808298,44.285324 38.51612,40.130045 34.12744,38.050753 32.178081,37.127175 30.037816,36.608886 27.88189,36.538322"
       id="path1880"
       inkscape:path-effect="#path-effect1882"
       inkscape:original-d="m 11.002034,57.376281 c 1.350741,3.025214 2.701118,6.162111 4.051158,9.242645 1.350053,3.080533 7.765098,3.025212 11.647113,4.537297 3.882014,1.512087 9.903198,-6.049383 14.854283,-9.074596 4.951072,-3.025213 1.013145,-8.738151 1.519183,-13.107749 0.506053,-4.369596 -5.963865,-7.281736 -8.946331,-10.923125 -2.982454,-3.641388 -4.16335,-1.007939 -6.24555,-1.512431" />
    <path
       style="fill:none;stroke:#00d47e;stroke-width:7;stroke-linecap:round;stroke-linejoin:round;stroke-miterlimit:4;stroke-dasharray:none;stroke-opacity:1"
       d="m 27.88189,36.538322 c -2.151403,-2.78044 -5.453575,-4.641285 -8.946318,-5.041442 -2.326547,-0.266548 -4.724885,0.100674 -6.857801,1.067387 -2.132916,0.966714 -3.9932659,2.532041 -5.2957017,4.478198 -1.952342,2.917276 -2.5920375,6.618599 -2.025586,10.082884 0.6619157,4.048122 2.9516889,7.806367 6.2455507,10.250932"
       id="path2110"
       inkscape:path-effect="#path-effect2112"
       inkscape:original-d="m 27.88189,36.538322 c -2.98175,-1.680134 -5.963864,-3.360613 -8.946318,-5.041442 -2.982468,-1.68083 -8.101993,3.697405 -12.1535027,5.545585 -4.0515237,1.84818 -1.3500391,6.722271 -2.025586,10.082884 -0.675547,3.360615 4.1640516,6.834303 6.2455507,10.250932" />
    <path
       style="fill:none;stroke:#00d47e;stroke-width:7;stroke-linecap:round;stroke-linejoin:round;stroke-miterlimit:4;stroke-dasharray:none;stroke-opacity:1"
       d="m 143.6431,68.131358 -9.95912,11.763367"
       id="path2194"
       inkscape:path-effect="#path-effect2198"
       inkscape:original-d="m 143.6431,68.131358 c -3.32006,3.921469 -6.63977,7.842592 -9.95912,11.763367" />
    <path
       style="fill:none;stroke:#00d47e;stroke-width:7;stroke-linecap:round;stroke-linejoin:round;stroke-miterlimit:4;stroke-dasharray:none;stroke-opacity:1"
       d="m 169.63809,57.37628 c -0.17527,3.434012 -1.64473,6.786577 -4.05116,9.242645 -2.99948,3.061357 -7.36257,4.644339 -11.64712,4.537298 -3.03701,-0.07587 -6.04996,-0.964197 -8.64241,-2.547986 -2.59245,-1.583789 -4.75801,-3.859124 -6.21187,-6.526612 -2.15685,-3.957323 -2.6936,-8.756524 -1.51918,-13.107748 1.26547,-4.688552 4.55764,-8.843831 8.94632,-10.923124 1.94936,-0.92358 4.08963,-1.44187 6.24556,-1.512432"
       id="path2200"
       inkscape:path-effect="#path-effect2204"
       inkscape:original-d="m 169.63809,57.37628 c -1.35075,3.025214 -2.70112,6.16211 -4.05116,9.242645 -1.35005,3.080533 -7.76509,3.025212 -11.64712,4.537298 -3.88201,1.512085 -9.9032,-6.049385 -14.85428,-9.074598 -4.95107,-3.025213 -1.01314,-8.73815 -1.51918,-13.107748 -0.50604,-4.369596 5.96387,-7.281735 8.94632,-10.923124 2.98246,-3.641388 4.16335,-1.007941 6.24556,-1.512432" />
    <path
       style="fill:none;stroke:#00d47e;stroke-width:7;stroke-linecap:round;stroke-linejoin:round;stroke-miterlimit:4;stroke-dasharray:none;stroke-opacity:1"
       d="m 152.75823,36.538321 c 2.1514,-2.780439 5.45358,-4.641284 8.94632,-5.041441 2.32655,-0.266548 4.72488,0.100673 6.8578,1.067387 2.13292,0.966713 3.99327,2.53204 5.2957,4.478197 1.95234,2.917276 2.59203,6.6186 2.02558,10.082884 -0.66192,4.048119 -2.95168,7.806362 -6.24554,10.250932"
       id="path2206"
       inkscape:path-effect="#path-effect2210"
       inkscape:original-d="m 152.75823,36.538321 c 2.98175,-1.680133 5.96387,-3.360615 8.94632,-5.041441 2.98248,-1.680831 8.10198,3.697403 12.1535,5.545584 4.05152,1.84818 1.35003,6.72227 2.02558,10.082884 0.67555,3.360614 -4.16405,6.834303 -6.24554,10.250932" />
    <path
       style="fill:none;stroke:#00d47e;stroke-width:7;stroke-linecap:round;stroke-linejoin:round;stroke-miterlimit:4;stroke-dasharray:none;stroke-opacity:1"
       d="m 78.690291,35.361985 c 3.654843,4.261325 7.797975,8.103521 12.322295,11.427268 4.101578,3.013183 8.756268,5.675318 13.841504,5.881684 5.0776,0.206057 10.19843,-2.260741 13.16629,-6.385826 2.19359,-3.048917 3.19624,-6.835305 3.37597,-10.587029 0.17471,-3.646886 -0.41852,-7.396947 -2.19438,-10.587028 -2.11125,-3.79255 -5.89185,-6.615389 -10.12793,-7.562163"
       id="path2245"
       inkscape:path-effect="#path-effect2247"
       inkscape:original-d="m 78.690291,35.361985 c 4.107787,3.809438 8.215223,7.618528 12.322295,11.427268 4.107098,3.808742 9.228024,3.921469 13.841504,5.881684 4.61347,1.960211 8.77788,-4.256871 13.16629,-6.385826 4.38842,-2.128958 2.25101,-7.057672 3.37597,-10.587029 1.12498,-3.529358 -1.46256,-7.057672 -2.19438,-10.587028 -0.7318,-3.529355 -6.75161,-5.041097 -10.12793,-7.562163" />
    <path
       style="fill:none;stroke:#00d47e;stroke-width:7;stroke-linecap:round;stroke-linejoin:round;stroke-miterlimit:4;stroke-dasharray:none;stroke-opacity:1"
       d="m 98.807284,35.361985 c -3.65485,4.261323 -7.797985,8.103519 -12.322307,11.427268 -4.101574,3.013182 -8.756259,5.675318 -13.841491,5.881684 -5.077599,0.206056 -10.198424,-2.260745 -13.166281,-6.385826 -2.193593,-3.048917 -3.196246,-6.835304 -3.375978,-10.587029 -0.17471,-3.646886 0.418517,-7.396947 2.194378,-10.587028 2.111243,-3.792547 5.891838,-6.615385 10.127917,-7.562163"
       id="path2249"
       inkscape:path-effect="#path-effect2253"
       inkscape:original-d="m 98.807284,35.361985 c -4.107787,3.809439 -8.215222,7.618528 -12.322307,11.427268 -4.107085,3.808742 -9.228003,3.921469 -13.841491,5.881684 -4.613474,1.960211 -8.777877,-4.256871 -13.166281,-6.385826 -4.388418,-2.128958 -2.251008,-7.057672 -3.375978,-10.587029 -1.124983,-3.529358 1.462568,-7.057672 2.194378,-10.587028 0.731812,-3.529355 6.751602,-5.041097 10.127917,-7.562163" />
    <path
       style="fill:none;stroke:#00d47e;stroke-width:7;stroke-linecap:round;stroke-linejoin:round;stroke-miterlimit:4;stroke-dasharray:none;stroke-opacity:1"
       d="M 68.423522,17.548891 C 70.063737,12.414079 73.857533,8.005159 78.690291,5.6174719 83.349428,3.3155645 88.867936,2.9078852 93.882172,4.273086 c 6.715588,1.8284184 12.480008,6.865811 15.191868,13.275805"
       id="path2550"
       inkscape:path-effect="#path-effect2552"
       inkscape:original-d="M 68.423522,17.548891 C 71.84613,13.572096 75.268387,9.5949662 78.690291,5.6174719 82.112196,1.6399916 88.818559,4.7215739 93.882172,4.273086 98.945773,3.8246119 104.01044,13.123972 109.07404,17.548891" />
  </g>
</svg>
